Coordinates
nRows=449
nColumns=2
inDegrees=yes
endheader
time	ankle_angle_r	
1.29738	 18.705959	
1.33065	 18.663937	
1.36391	 18.751930	
1.39718	 18.709326	
1.43044	 18.679544	
1.46371	 18.736961	
1.49698	 18.724005	
1.53024	 18.692017	
1.56351	 18.738335	
1.59677	 18.722534	
1.63004	 18.737095	
1.66331	 18.708282	
1.69657	 18.722534	
1.72984	 18.707275	
1.7631	 18.753052	
1.79637	 18.722534	
1.82964	 18.692017	
1.8629	 18.737793	
1.89617	 18.767462	
1.92944	 18.707275	
1.9627	 18.753052	
1.99597	 18.737793	
2.02923	 18.736982	
2.0625	 18.752144	
2.09577	 18.724545	
2.12903	 18.707275	
2.1623	 18.751854	
2.19556	 18.705980	
2.22883	 18.690624	
2.2621	 18.692017	
2.29536	 18.739378	
2.32863	 18.707275	
2.3619	 18.707275	
2.39516	 18.707275	
2.42843	 18.707275	
2.46169	 18.642103	
2.49496	 18.633146	
2.52823	 18.611198	
2.56149	 18.630981	
2.59476	 18.689562	
2.62802	 18.646240	
2.66129	 18.722534	
2.69456	 18.735048	
2.72782	 18.697701	
2.76109	 18.725473	
2.79435	 18.753052	
2.82762	 18.695148	
2.86089	 18.746593	
2.89415	 18.741117	
2.92742	 18.707275	
2.96069	 18.726053	
2.99395	 18.741409	
3.02722	 18.684181	
3.06048	 18.722534	
3.09375	 18.737793	
3.12702	 18.692017	
3.16028	 18.737793	
3.19355	 18.746183	
3.22681	 18.713949	
3.26008	 18.759533	
3.29335	 18.716248	
3.32661	 18.696598	
3.35988	 18.737793	
3.39315	 18.721603	
3.42641	 18.692017	
3.45968	 18.737442	
3.49294	 18.717407	
3.52621	 18.707275	
3.55948	 18.737793	
3.59274	 18.682114	
3.62601	 18.681112	
3.65927	 18.747503	
3.69254	 18.640594	
3.72581	 18.564203	
3.75907	 18.621561	
3.79234	 18.569946	
3.8256	 18.646240	
3.85887	 18.630981	
3.89214	 18.670532	
3.9254	 18.585205	
3.95867	 18.698437	
3.99194	 18.646240	
4.0252	 18.637594	
4.05847	 18.646240	
4.09173	 18.585205	
4.125	 18.614269	
4.15827	 18.683758	
4.19153	 18.591234	
4.2248	 18.662373	
4.25806	 18.630981	
4.29133	 18.630981	
4.3246	 18.607946	
4.35786	 18.615723	
4.39113	 18.623304	
4.4244	 18.676758	
4.45766	 18.653629	
4.49093	 18.630981	
4.52419	 18.569946	
4.55746	 18.600464	
4.59073	 18.675505	
4.62399	 18.601912	
4.65726	 18.592014	
4.69052	 18.610844	
4.72379	 18.639624	
4.75706	 18.722534	
4.79032	 18.630981	
4.82359	 18.585205	
4.85685	 18.630981	
4.89012	 18.615723	
4.92339	 18.575981	
4.95665	 18.569946	
4.98992	 18.591047	
5.02319	 18.585205	
5.05645	 18.671108	
5.08972	 18.625429	
5.12298	 18.626633	
5.15625	 18.681299	
5.18952	 18.590467	
5.22278	 18.600464	
5.25605	 18.702208	
5.28931	 18.605436	
5.32258	 18.599831	
5.35585	 18.661499	
5.38911	 18.554688	
5.42238	 18.666084	
5.45565	 18.692017	
5.48891	 18.637457	
5.52218	 18.635277	
5.55544	 18.676758	
5.58871	 18.714331	
5.62198	 18.684769	
5.65524	 18.634890	
5.68851	 18.650051	
5.72177	 18.623154	
5.75504	 18.710894	
5.78831	 18.654455	
5.82157	 18.622572	
5.85484	 18.627653	
5.8881	 18.588436	
5.92137	 18.612587	
5.95464	 18.664537	
5.9879	 18.679699	
6.02117	 18.661499	
6.05444	 18.630981	
6.0877	 18.661499	
6.12097	 18.714939	
6.15423	 18.648699	
6.1875	 18.602825	
6.22077	 18.648504	
6.25403	 18.689848	
6.2873	 18.676758	
6.32056	 18.722534	
6.35383	 18.711031	
6.3871	 18.602245	
6.42036	 18.720850	
6.45363	 18.688841	
6.4869	 18.646240	
6.52016	 18.707275	
6.55343	 18.722534	
6.58669	 18.633385	
6.61996	 18.615723	
6.65323	 18.584198	
6.68649	 18.676758	
6.71976	 18.675943	
6.75302	 18.676041	
6.78629	 18.692017	
6.81956	 18.646240	
6.85282	 18.692873	
6.88609	 18.692017	
6.91935	 18.661499	
6.95262	 18.707275	
6.98589	 18.615765	
7.01915	 18.692017	
7.05242	 18.753052	
7.08569	 18.722534	
7.11895	 18.706930	
7.15222	 18.737793	
7.18548	 18.676758	
7.21875	 18.737158	
7.25202	 18.752319	
7.28528	 18.693674	
7.31855	 18.724386	
7.35181	 18.752029	
7.38508	 18.706156	
7.41835	 18.739008	
7.45161	 18.740417	
7.48488	 18.734974	
7.51815	 18.724041	
7.55141	 18.753052	
7.58468	 18.693716	
7.61794	 18.727922	
7.65121	 18.726320	
7.68448	 18.705286	
7.71774	 18.741964	
7.75101	 18.742159	
7.78427	 18.704996	
7.81754	 18.735416	
7.85081	 18.750580	
7.88407	 18.707275	
7.91734	 18.737793	
7.9506	 18.715565	
7.98387	 18.692017	
8.01714	 18.750095	
8.0504	 18.713381	
8.08367	 18.652540	
8.11694	 18.661499	
8.1502	 18.680101	
8.18347	 18.695456	
8.21673	 18.638054	
8.25	 18.611362	
8.28327	 18.680487	
8.31653	 18.737793	
8.3498	 18.657576	
8.38306	 18.604485	
8.41633	 18.700249	
8.4496	 18.676758	
8.48286	 18.630981	
8.51613	 18.655054	
8.5494	 18.672255	
8.58266	 18.661499	
8.61593	 18.655634	
8.64919	 18.600464	
8.68246	 18.671867	
8.71573	 18.707275	
8.74899	 18.600464	
8.78226	 18.666397	
8.81552	 18.697294	
8.84879	 18.621096	
8.88206	 18.625511	
8.91532	 18.642115	
8.94859	 18.600464	
8.98185	 18.594704	
9.01512	 18.652098	
9.04839	 18.569946	
9.08165	 18.560738	
9.11492	 18.673792	
9.14819	 18.615723	
9.18145	 18.615723	
9.21472	 18.652678	
9.24798	 18.676758	
9.28125	 18.609093	
9.31452	 18.630981	
9.34778	 18.630981	
9.38105	 18.622643	
9.41431	 18.661499	
9.44758	 18.646240	
9.48085	 18.683968	
9.51411	 18.714582	
9.54738	 18.692017	
9.58065	 18.600721	
9.61391	 18.676823	
9.64718	 18.615723	
9.68044	 18.569624	
9.71371	 18.653612	
9.74698	 18.555397	
9.78024	 18.631884	
9.81351	 18.669676	
9.84677	 18.622707	
9.88004	 18.608835	
9.91331	 18.685225	
9.94657	 18.598595	
9.97984	 18.622320	
10.0131	 18.582949	
10.0464	 18.600464	
10.0796	 18.600464	
10.1129	 18.667711	
10.1462	 18.661499	
10.1794	 18.621740	
10.2127	 18.655579	
10.246	 18.665108	
10.2792	 18.636709	
10.3125	 18.671127	
10.3458	 18.600464	
10.379	 18.662554	
10.4123	 18.676758	
10.4456	 18.615723	
10.4788	 18.651388	
10.5121	 18.590151	
10.5454	 18.595114	
10.5786	 18.610180	
10.6119	 18.661499	
10.6452	 18.564016	
10.6784	 18.646240	
10.7117	 18.667816	
10.745	 18.657125	
10.7782	 18.676758	
10.8115	 18.635162	
10.8448	 18.630981	
10.878	 18.692017	
10.9113	 18.642349	
10.9446	 18.646240	
10.9778	 18.665197	
11.0111	 18.604065	
11.0444	 18.654491	
11.0776	 18.725941	
11.1109	 18.719223	
11.1442	 18.686399	
11.1774	 18.670851	
11.2107	 18.630981	
11.244	 18.630981	
11.2772	 18.707275	
11.3105	 18.674026	
11.3437	 18.689383	
11.377	 18.692017	
11.4103	 18.663940	
11.4435	 18.661499	
11.4768	 18.720287	
11.5101	 18.753052	
11.5433	 18.709330	
11.5766	 18.747181	
11.6099	 18.710997	
11.6431	 18.720770	
11.6764	 18.751385	
11.7097	 18.737793	
11.7429	 18.705801	
11.7762	 18.748920	
11.8095	 18.751772	
11.8427	 18.707275	
11.876	 18.738880	
11.9093	 18.754042	
11.9425	 18.706381	
11.9758	 18.752254	
12.0091	 18.737793	
12.0423	 18.692619	
12.0756	 18.722534	
12.1089	 18.767490	
12.1421	 18.721907	
12.1754	 18.722534	
12.2087	 18.768070	
12.2419	 18.707298	
12.2752	 18.737720	
12.3085	 18.737793	
12.3417	 18.722267	
12.375	 18.737793	
12.4083	 18.768311	
12.4415	 18.692574	
12.4748	 18.737139	
12.5081	 18.739292	
12.5413	 18.706429	
12.5746	 18.707275	
12.6079	 18.710396	
12.6411	 18.707275	
12.6744	 18.706041	
12.7077	 18.711266	
12.7409	 18.658646	
12.7742	 18.722534	
12.8075	 18.707275	
12.8407	 18.585205	
12.874	 18.709089	
12.9073	 18.604284	
12.9405	 18.628975	
12.9738	 18.663603	
13.0071	 18.559088	
13.0403	 18.569946	
13.0736	 18.694410	
13.1069	 18.605444	
13.1401	 18.557274	
13.1734	 18.676758	
13.2067	 18.606026	
13.2399	 18.643364	
13.2732	 18.582232	
13.3065	 18.603535	
13.3397	 18.649408	
13.373	 18.676758	
13.4062	 18.588566	
13.4395	 18.649698	
13.4728	 18.714384	
13.506	 18.676758	
13.5393	 18.615723	
13.5726	 18.688173	
13.6058	 18.657558	
13.6391	 18.684832	
13.6724	 18.646240	
13.7056	 18.580975	
13.7389	 18.585205	
13.7722	 18.702850	
13.8054	 18.611202	
13.8387	 18.544046	
13.872	 18.569946	
13.9052	 18.630981	
13.9385	 18.590113	
13.9718	 18.676758	
14.005	 18.585205	
14.0383	 18.615723	
14.0716	 18.636276	
14.1048	 18.635458	
14.1381	 18.554688	
14.1714	 18.625397	
14.2046	 18.606144	
14.2379	 18.640463	
14.2712	 18.682632	
14.3044	 18.661499	
14.3377	 18.624914	
14.371	 18.701111	
14.4042	 18.646240	
14.4375	 18.624624	
14.4708	 18.604568	
14.504	 18.593912	
14.5373	 18.576593	
14.5706	 18.624237	
14.6038	 18.585205	
14.6371	 18.608786	
14.6704	 18.661499	
14.7036	 18.593332	
14.7369	 18.623753	
14.7702	 18.593748	
14.8034	 18.661499	
14.8367	 18.608204	
14.87	 18.631010	
14.9032	 18.623434	
14.9365	 18.660784	
14.9698	 18.623627	
15.003	 18.646240	
15.0363	 18.615723	
15.0696	 18.647371	
15.1028	 18.600464	
15.1361	 18.646240	
15.1694	 18.715761	
15.2026	 18.622400	
15.2359	 18.668079	
15.2692	 18.622206	
15.3024	 18.652628	
15.3357	 18.613045	
15.369	 18.667692	
15.4022	 18.615723	
15.4355	 18.645725	
15.4687	 18.682661	
15.502	 18.661499	
15.5353	 18.630981	
15.5685	 18.560301	
15.6018	 18.600464	
15.6351	 18.681175	
15.6683	 18.707275	
15.7016	 18.600885	
15.7349	 18.641109	
15.7681	 18.702084	
15.8014	 18.605400	
15.8347	 18.696857	
15.8679	 18.676758	
15.9012	 18.635628	
15.9345	 18.702724	
15.9677	 18.685665	
16.001	 18.672401	
16.0343	 18.698755	
16.0675	 18.676758	
16.1008	 18.615723	
16.1341	 18.718565	
16.1673	 18.684271	
16.2006	 18.672981	
